<mxfile host="app.diagrams.net" modified="2023-09-05T13:27:05.791Z" agent="Mozilla/5.0 (Windows NT 10.0; Win64; x64) AppleWebKit/537.36 (KHTML, like Gecko) Chrome/116.0.0.0 Safari/537.36" etag="uoeOYww-fr-iwbvaPRyV" version="21.7.2" type="device">
  <diagram name="Trang-1" id="u_hsELNS-S4h269zslWg">
    <mxGraphModel dx="1400" dy="712" grid="1" gridSize="10" guides="1" tooltips="1" connect="1" arrows="1" fold="1" page="1" pageScale="1" pageWidth="827" pageHeight="1169" math="0" shadow="0">
      <root>
        <mxCell id="0" />
        <mxCell id="1" parent="0" />
        <mxCell id="VBGN9KG2AOkJHrlL422t-6" style="edgeStyle=orthogonalEdgeStyle;rounded=0;orthogonalLoop=1;jettySize=auto;html=1;entryX=0.5;entryY=0;entryDx=0;entryDy=0;" edge="1" parent="1" source="VBGN9KG2AOkJHrlL422t-1" target="VBGN9KG2AOkJHrlL422t-3">
          <mxGeometry relative="1" as="geometry" />
        </mxCell>
        <mxCell id="VBGN9KG2AOkJHrlL422t-1" value="&lt;font style=&quot;font-size: 30px;&quot; face=&quot;Verdana&quot;&gt;Nháº­p n&lt;/font&gt;" style="ellipse;whiteSpace=wrap;html=1;" vertex="1" parent="1">
          <mxGeometry x="130" y="140" width="216" height="130" as="geometry" />
        </mxCell>
        <mxCell id="VBGN9KG2AOkJHrlL422t-2" value="&lt;font face=&quot;Verdana&quot;&gt;&lt;span style=&quot;font-size: 30px;&quot;&gt;In n&lt;/span&gt;&lt;/font&gt;" style="ellipse;whiteSpace=wrap;html=1;" vertex="1" parent="1">
          <mxGeometry x="130" y="640" width="216" height="130" as="geometry" />
        </mxCell>
        <mxCell id="VBGN9KG2AOkJHrlL422t-7" style="edgeStyle=orthogonalEdgeStyle;rounded=0;orthogonalLoop=1;jettySize=auto;html=1;" edge="1" parent="1" source="VBGN9KG2AOkJHrlL422t-3" target="VBGN9KG2AOkJHrlL422t-2">
          <mxGeometry relative="1" as="geometry" />
        </mxCell>
        <mxCell id="VBGN9KG2AOkJHrlL422t-8" style="edgeStyle=orthogonalEdgeStyle;rounded=0;orthogonalLoop=1;jettySize=auto;html=1;entryX=0;entryY=0.5;entryDx=0;entryDy=0;" edge="1" parent="1" source="VBGN9KG2AOkJHrlL422t-3" target="VBGN9KG2AOkJHrlL422t-4">
          <mxGeometry relative="1" as="geometry" />
        </mxCell>
        <mxCell id="VBGN9KG2AOkJHrlL422t-3" value="&lt;font face=&quot;Verdana&quot; style=&quot;font-size: 30px;&quot;&gt;n &amp;lt; 0&amp;nbsp;&lt;/font&gt;" style="rhombus;whiteSpace=wrap;html=1;" vertex="1" parent="1">
          <mxGeometry x="73" y="370" width="330" height="150" as="geometry" />
        </mxCell>
        <mxCell id="VBGN9KG2AOkJHrlL422t-4" value="&lt;font face=&quot;Verdana&quot; style=&quot;font-size: 30px;&quot;&gt;n =&amp;nbsp;n*(-1)&lt;/font&gt;" style="rounded=0;whiteSpace=wrap;html=1;" vertex="1" parent="1">
          <mxGeometry x="550" y="372.5" width="270" height="145" as="geometry" />
        </mxCell>
        <mxCell id="VBGN9KG2AOkJHrlL422t-10" value="" style="endArrow=classic;html=1;rounded=0;exitX=0.5;exitY=1;exitDx=0;exitDy=0;entryX=0.972;entryY=0.615;entryDx=0;entryDy=0;entryPerimeter=0;" edge="1" parent="1" source="VBGN9KG2AOkJHrlL422t-4" target="VBGN9KG2AOkJHrlL422t-2">
          <mxGeometry width="50" height="50" relative="1" as="geometry">
            <mxPoint x="380" y="530" as="sourcePoint" />
            <mxPoint x="430" y="480" as="targetPoint" />
            <Array as="points">
              <mxPoint x="680" y="720" />
            </Array>
          </mxGeometry>
        </mxCell>
      </root>
    </mxGraphModel>
  </diagram>
</mxfile>
